<svg xmlns="http://www.w3.org/2000/svg" width="100%" height="100%">
  <defs>
    <radialGradient id="l" cx="50%" cy="51%" fy="0" r="50%">
      <stop offset="0%" style="stop-color:#8b2712; stop-opacity:.03;"/>
      <stop offset="30%" style="stop-color:#4b1306; stop-opacity:0.1;"/>
      <stop offset="60%" style="stop-color:#090708; stop-opacity:0.2;"/>
      <stop offset="100%" style="stop-color:#090708; stop-opacity:.5"/>
    </radialGradient>
  </defs>
  <rect fill="transparent" width="100%" height="100%"/>
  <rect width="100%" height="100%" fill="url(#l)"/>
  <svg x="50%" y="50%" overflow="visible">
    <rect width="2000%" height="2000%" fill-opacity="0.01" fill="#ffffff" transform="rotate(20)"/>
    <rect width="2000%" height="2000%" fill-opacity="0.01" fill="#ffffff" transform="rotate(40)"/>
    <rect width="2000%" height="2000%" fill-opacity="0.01" fill="#ffffff" transform="rotate(60)"/>
    <rect width="2000%" height="2000%" fill-opacity="0.01" fill="#ffffff" transform="rotate(80)"/>
    <rect width="2000%" height="2000%" fill-opacity="0.01" fill="#ffffff" transform="rotate(100)"/>
    <rect width="2000%" height="2000%" fill-opacity="0.01" fill="#ffffff" transform="rotate(120)"/>
    <rect width="2000%" height="2000%" fill-opacity="0.01" fill="#ffffff" transform="rotate(140)"/>
    <rect width="2000%" height="2000%" fill-opacity="0.01" fill="#ffffff" transform="rotate(160)"/>
    <rect width="2000%" height="2000%" fill-opacity="0.01" fill="#ffffff" transform="rotate(180)"/>
    <rect width="2000%" height="2000%" fill-opacity="0.01" fill="#ffffff" transform="rotate(200)"/>
    <rect width="2000%" height="2000%" fill-opacity="0.01" fill="#ffffff" transform="rotate(220)"/>
    <rect width="2000%" height="2000%" fill-opacity="0.01" fill="#ffffff" transform="rotate(240)"/>
    <rect width="2000%" height="2000%" fill-opacity="0.01" fill="#ffffff" transform="rotate(260)"/>
    <rect width="2000%" height="2000%" fill-opacity="0.03" fill="#ffffff" transform="rotate(280)"/>
    <rect width="2000%" height="2000%" fill-opacity="0.02" fill="#ffffff" transform="rotate(300)"/>
    <rect width="2000%" height="2000%" fill-opacity="0.02" fill="#ffffff" transform="rotate(320)"/>
    <rect width="2000%" height="2000%" fill-opacity="0.02" fill="#ffffff" transform="rotate(340)"/>
    <rect width="2000%" height="2000%" fill-opacity="0.02" fill="#ffffff" transform="rotate(360)"/>
  </svg>
</svg>
