<?xml version="1.0" encoding="utf-8"?>
<!-- Generator: Adobe Illustrator 19.0.0, SVG Export Plug-In . SVG Version: 6.00 Build 0)  -->
<!DOCTYPE svg PUBLIC "-//W3C//DTD SVG 1.1//EN" "http://www.w3.org/Graphics/SVG/1.1/DTD/svg11.dtd">
<svg version="1.1" id="Ebene_1" xmlns="http://www.w3.org/2000/svg" xmlns:xlink="http://www.w3.org/1999/xlink" x="0px" y="0px"
	 width="180px" height="140px" viewBox="-9 -60 180 140" style="enable-background:new -9 -60 180 140;" xml:space="preserve">
<style type="text/css">
	.st0{fill:#F4F1D4;}
	.st1{fill:#FF0000;}
	.st2{fill:#FFFFFF;}
</style>
<path id="XMLID_3_" class="st0" d="M20.2,16.3l21.3-48.6l11.4-4.2L31,13.9L20.2,16.3z M28.8-9.6C26.4-9,24.6-9.1,23.3-10
	s-2-2.3-2.1-4.1s0.4-4,1.4-6.4c1.1-2.4,2.8-4.9,5.2-7.3s5.4-4.7,9.2-6.9c3.7-2.1,8.2-3.8,13.3-5c3.7-0.8,6.7-1.1,9-0.6
	c2.3,0.4,4.1,1.3,5.2,2.7c1.2,1.3,1.8,3,1.9,5s-0.3,4.2-1.1,6.5c-0.8,2.3-2.1,4.7-3.7,7.1c-1.7,2.4-3.7,4.7-6,6.9
	c-2.4,2.2-5,4.1-8,5.7c-3,1.7-6.2,2.9-9.6,3.7c-1.1,0.2-1.7,0.3-1.9,0.2s-0.2-0.3,0-0.5s0.6-0.5,1.1-0.8s0.9-0.5,1.3-0.6
	c1.8-0.4,3.8-1.6,5.8-3.7c2-2,4-4.4,5.7-7.1c1.8-2.7,3.3-5.6,4.5-8.5c1.2-3,2-5.6,2.2-8c0.3-2.4-0.1-4.2-1-5.5
	c-1-1.3-2.8-1.7-5.4-1.1c-2.9,0.7-5.5,1.8-7.8,3.4s-4.2,3.3-5.9,5.3s-3.1,4-4.2,6.2c-1.1,2.2-2,4.2-2.6,6.1c-0.6,1.9-1,3.6-1.2,5
	C28.5-10.9,28.6-10,28.8-9.6z"/>
<path id="XMLID_6_" class="st0" d="M59.9-7.3c0.8-1.7,1.5-3.4,2.2-5.1c0.7-1.7,1.4-3.2,2-4.6c0.7-1.6,1.3-3.1,2-4.6l11.4-4.2
	c-0.6,1.3-1.2,2.9-2,4.6c-0.6,1.4-1.4,3.2-2.3,5.2s-1.9,4.2-3,6.6c-1.1,2.4-2,4.4-2.6,6c-0.7,1.6-1.1,2.8-1.4,3.7s-0.4,1.5-0.3,1.8
	s0.4,0.4,0.8,0.3c0.8-0.2,1.8-1,2.9-2.3c1.1-1.4,2.1-2.8,3.1-4.4c1.2-1.9,2.3-3.9,3.5-6.2c-1.1,2.9-2.3,5.5-3.8,7.8
	c-0.6,1-1.3,2-2.1,3c-0.8,1-1.6,1.9-2.6,2.8c-0.9,0.9-2,1.6-3,2.3c-1.1,0.6-2.2,1.1-3.4,1.4c-2.3,0.5-3.8,0.4-4.5-0.3
	c-0.7-0.7-1-1.8-0.8-3.3c0.2-1.4,0.6-3.1,1.4-5C58.4-3.8,59.2-5.6,59.9-7.3z M69.8-29.5c1-2.1,1.8-3.9,2.5-5.3s1.3-2.6,2-3.5
	s1.3-1.7,2.1-2.3s1.6-1.1,2.6-1.6s2.2-0.9,3.7-1.4c1.4-0.4,3.1-1,5.2-1.7c-0.9,1.9-1.6,3.5-2.2,4.8c-0.6,1.3-1.2,2.4-1.8,3.2
	c-0.6,0.9-1.2,1.6-1.9,2.2c-0.7,0.6-1.6,1.1-2.6,1.7c-1,0.5-2.3,1.1-3.8,1.7C73.9-31.2,72-30.4,69.8-29.5z"/>
<path id="XMLID_9_" class="st0" d="M75.9-11c0.3-0.8,0.8-1.9,1.4-3.2s1.2-2.7,1.9-4.2c0.7-1.5,1.4-3.1,2.1-4.7
	c0.7-1.6,1.4-3.3,2.2-4.9c1.6-3.8,3.4-7.7,5.3-11.9l13.1-8c-2.1,4.7-4.1,9.3-6.1,13.7c-0.8,1.9-1.7,3.8-2.5,5.8
	c-0.9,2-1.7,3.9-2.6,5.7c-0.8,1.9-1.6,3.6-2.4,5.2c-0.7,1.6-1.4,3.1-1.9,4.2c-1.1,2.4-2,4.4-2.6,6c-0.7,1.6-1.1,2.8-1.4,3.7
	S82-2.1,82.1-1.8s0.4,0.4,0.8,0.3c0.8-0.2,1.8-1,2.9-2.3c1.1-1.4,2.1-2.8,3.1-4.4c1.2-1.9,2.3-3.9,3.5-6.2c-1.1,2.9-2.3,5.5-3.8,7.8
	c-0.6,1-1.3,2-2.1,3c-0.8,1-1.6,1.9-2.6,2.8c-0.9,0.9-2,1.6-3,2.3c-1.1,0.6-2.2,1.1-3.4,1.4c-2.3,0.5-3.8,0.4-4.5-0.3
	s-1-1.8-0.8-3.3c0.2-1.4,0.7-3.1,1.4-5C74.4-7.5,75.2-9.3,75.9-11z M79.3-26.2l1.6-3.2l18.6-4.3L98-30.5L79.3-26.2z"/>
<path id="XMLID_12_" class="st0" d="M-4,73.7l21.3-48.6l11.4-4.2L6.8,71.2L-4,73.7z M4.6,47.7c-2.4,0.6-4.2,0.5-5.5-0.4
	s-2-2.3-2.1-4.1c-0.1-1.8,0.4-4,1.4-6.4c1.1-2.4,2.8-4.9,5.2-7.3s5.4-4.7,9.2-6.9c3.7-2.1,8.2-3.8,13.3-5c3.7-0.8,6.7-1.1,9-0.6
	c2.3,0.4,4.1,1.3,5.2,2.7c1.2,1.3,1.8,3,1.9,5c0.1,2-0.3,4.2-1.1,6.5s-2.1,4.7-3.7,7.1c-1.7,2.4-3.7,4.7-6,6.9c-2.4,2.2-5,4.1-8,5.7
	c-3,1.7-6.2,2.9-9.6,3.7c-1.1,0.2-1.7,0.3-1.9,0.2c-0.2-0.1-0.2-0.3,0-0.5s0.6-0.5,1.1-0.8s0.9-0.5,1.3-0.6c1.8-0.4,3.8-1.6,5.8-3.7
	c2-2,4-4.4,5.7-7.1c1.8-2.7,3.3-5.6,4.5-8.5c1.2-3,2-5.6,2.2-8c0.3-2.4-0.1-4.2-1-5.5c-1-1.3-2.8-1.7-5.4-1.1
	c-2.9,0.7-5.5,1.8-7.8,3.4s-4.2,3.3-5.9,5.3c-1.7,2-3.1,4-4.2,6.2c-1.1,2.2-2,4.2-2.6,6.1s-1,3.6-1.2,5C4.3,46.4,4.4,47.3,4.6,47.7z
	"/>
<path id="XMLID_15_" class="st0" d="M28.8,66.1l13.5-30.5l11.4-4.2L39.5,63.6L28.8,66.1z M59.5,30.1c2.5-0.6,4.1-0.5,5,0.1
	s1.3,1.6,1.3,2.9s-0.4,2.7-1.1,4.3C64,39,63.3,40.6,62.6,42s-1.3,2.6-1.7,3.5c-0.4,0.9-0.4,1.3,0.2,1.2c0.8-0.2,1.7-0.7,2.6-1.7
	c0.9-0.9,1.8-1.9,2.6-3c0.9-1.2,1.8-2.6,2.8-4.1c-1,2.1-2.2,4-3.5,5.8c-1.2,1.5-2.6,3-4.2,4.4c-1.7,1.4-3.6,2.4-5.8,2.9
	c-2,0.5-3.3,0.4-3.9-0.2C51,50.2,50.8,49.3,51,48c0.2-1.2,0.6-2.6,1.2-4.1c0.7-1.5,1.3-3,1.9-4.3c0.6-1.3,1.1-2.4,1.3-3.2
	c0.3-0.8,0.1-1.2-0.5-1c-0.9,0.2-1.7,0.8-2.6,1.8c-0.9,1-1.6,2.1-2.3,3.2c-0.8,1.3-1.6,2.8-2.2,4.4c-0.4,0.6-0.8,1.2-1.2,1.8
	c-0.4,0.6-0.8,1-1.1,1.5c-0.3,0.4-0.6,0.7-0.8,0.9c-0.2,0.2-0.2,0.1-0.1-0.1c0.9-2.2,1.9-4.3,3-6.4c1.2-2.1,2.4-4,3.7-5.7
	s2.7-3.2,4.1-4.3C56.6,31.2,58,30.4,59.5,30.1z"/>
<path id="XMLID_18_" class="st0" d="M87.1,23.7c2.9-0.7,5-0.4,6.4,0.7s2.1,2.7,2.1,4.9c0,2.1-0.5,4.6-1.6,7.3
	c-1.1,2.8-2.6,5.4-4.6,8s-4.3,4.9-7.1,7c-2.7,2.1-5.7,3.4-8.9,4.2c-2.9,0.7-5.1,0.5-6.6-0.6s-2.4-2.7-2.6-4.8
	c-0.2-2.1,0.1-4.5,1.1-7.2s2.4-5.4,4.4-8s4.4-5,7.3-7C80.1,26,83.4,24.5,87.1,23.7z M74,54.4c0.8-0.2,1.8-1.1,3-2.6
	c1.2-1.6,2.3-3.5,3.5-5.7s2.3-4.6,3.4-7.1s2-4.8,2.6-6.9c0.7-2.1,1-3.8,1.1-5.1c0.1-1.3-0.2-1.9-0.9-1.7c-1.2,0.3-2.4,1.2-3.6,2.8
	c-1.3,1.6-2.5,3.5-3.7,5.7s-2.3,4.6-3.3,7.1s-1.8,4.8-2.3,6.9c-0.6,2.1-0.8,3.8-0.9,5.1C72.9,54,73.3,54.5,74,54.4z"/>
<path id="XMLID_21_" class="st0" d="M90.9,51.8l13.4-30.4l11.4-4.2l-14.2,32.2L90.9,51.8z M122.4,15.5c3.4-0.8,5.4,0,6,2.2
	s-0.5,6.2-3.3,11.9c-2.2,4.6-3.7,7.8-4.5,9.6c-0.7,1.8-0.7,2.7,0.2,2.5c0.8-0.2,1.8-1,2.9-2.3c1.1-1.4,2.2-2.8,3.2-4.4
	c1.2-1.9,2.4-3.9,3.6-6.2c-1.1,2.8-2.3,5.5-3.8,7.8c-0.6,1-1.3,2-2.1,3s-1.6,1.9-2.6,2.8c-0.9,0.9-2,1.6-3,2.3
	c-1.1,0.6-2.2,1.1-3.4,1.4c-1.5,0.3-2.6,0.4-3.4,0.1s-1.3-0.7-1.5-1.4c-0.2-0.7-0.3-1.5-0.1-2.5c0.2-1,0.5-2.1,0.9-3.2
	c0.4-1.2,0.9-2.4,1.5-3.6s1.1-2.4,1.6-3.6c0.8-1.7,1.5-3.2,2.1-4.7s1.1-2.7,1.5-3.7c0.3-1,0.5-1.8,0.5-2.3s-0.3-0.7-0.9-0.6
	c-0.5,0.1-1.1,0.5-1.8,1.3c-0.7,0.7-1.4,1.6-2.1,2.7s-1.5,2.3-2.3,3.6c-0.8,1.3-1.5,2.7-2.2,4.1c-1.7,3.2-3.4,6.8-5.2,10.8
	c0.1-0.5,0.3-1.3,0.7-2.3c0.3-0.9,0.8-2.1,1.5-3.7c0.7-1.5,1.5-3.6,2.6-6.1c0.8-1.7,1.6-3.3,2.5-5s1.8-3.2,2.9-4.6s2.3-2.6,3.6-3.6
	C119.3,16.6,120.8,15.9,122.4,15.5z"/>
<path id="XMLID_24_" class="st0" d="M139.4,39.3c3.3-0.8,6.3-2.4,9-4.8c2.7-2.5,5.4-5.5,8-9.2c-0.9,1.7-2.1,3.4-3.4,5.1
	c-1.4,1.7-2.9,3.3-4.6,4.7c-1.7,1.4-3.4,2.7-5.3,3.8c-1.9,1.1-3.8,1.8-5.9,2.3c-3.1,0.7-5.5,0.6-7.1-0.5s-2.5-2.6-2.7-4.8
	c-0.2-2.1,0.2-4.5,1.2-7.3c1-2.7,2.5-5.4,4.6-8c2-2.6,4.5-5,7.4-7.1s6.1-3.5,9.7-4.4c2.4-0.6,4.2-0.5,5.5,0.1s2,1.6,2.2,3
	s-0.1,3-1,4.9s-2.2,3.8-4.1,5.8c-1.9,2-4.2,3.9-7,5.8s-6.1,3.4-9.8,4.8c-0.6-0.1-0.8-0.3-0.5-0.6c0.3-0.3,0.6-0.5,0.9-0.6
	c1.3-0.4,2.6-1.3,3.9-2.6c1.3-1.3,2.6-2.8,3.7-4.4c1.2-1.7,2.2-3.4,3.2-5.2c1-1.8,1.7-3.4,2.3-4.9s0.9-2.6,1-3.6
	c0.1-0.9-0.1-1.3-0.6-1.2c-0.7,0.2-1.6,1-2.9,2.6c-1.3,1.6-2.6,3.5-3.9,5.8c-1.4,2.3-2.6,4.7-3.8,7.2s-2.1,4.9-2.6,7
	c-0.6,2.1-0.7,3.8-0.4,5C136.7,39.2,137.7,39.7,139.4,39.3z"/>
<path class="st1" d="M223-119c0,0-21,2.2-25.2,3.8c-4.2,1.5-8.3,3.9-11.6,7c-3.3,3.1-6.5,7.3-8.8,12.2c-2.3,4.9-6,31.5-6,31.5
	s23.3-4.1,27.9-6.3c4.7-2.2,8.8-5.1,11.9-8.3c3.1-3.2,5.7-7.3,7.4-11.9C220.4-95.6,223-119,223-119z M209.9-86.7
	c-0.3,0.5-0.7,1-1.1,1.5c-0.4,0.5-0.8,0.9-1.3,1.4c-0.5,0.4-1,0.8-1.6,1.1c-0.6,0.3-1.1,0.5-1.8,0.6c-0.8,0.1-1.4,0.1-1.7,0
	c-0.4-0.2-0.7-0.4-0.8-0.8c-0.1-0.3-0.1-0.8-0.1-1.3c0.1-0.5,0.2-1.1,0.5-1.6c0.2-0.6,0.5-1.2,0.8-1.8s0.6-1.2,0.8-1.8
	c0.4-0.8,0.8-1.6,1.1-2.3c0.3-0.7,0.6-1.3,0.8-1.8s0.3-0.9,0.2-1.2c0-0.3-0.2-0.4-0.5-0.3c-0.3,0-0.6,0.2-0.9,0.6
	c-0.3,0.3-0.7,0.8-1.1,1.3c-0.4,0.5-0.8,1.1-1.2,1.8c-0.4,0.7-0.8,1.3-1.2,2c-0.3,0.6-0.6,1.2-1,1.9l-2.6,5.8l-5.9,1.8l2-4.4
	c-0.1,0.2-0.3,0.4-0.4,0.5c-0.7,0.8-1.5,1.6-2.3,2.3c-0.9,0.7-1.8,1.3-2.7,1.8c-1,0.5-2,0.8-3,1c-1.6,0.3-2.8,0.1-3.6-0.5
	s-1.3-1.4-1.4-2.5c-0.1-1.1,0.1-2.3,0.6-3.7s1.3-2.7,2.3-4c1-1.3,2.3-2.4,3.8-3.4s3.1-1.6,5-2c1.2-0.2,2.2-0.1,2.8,0.2
	c0.6,0.4,1,0.9,1.1,1.5c0.1,0.7,0,1.4-0.3,2.2s-0.8,1.6-1.5,2.3c-0.7,0.7-1.5,1.3-2.5,1.7s-2.1,0.6-3.2,0.5c0.6-0.7,1.2-1.5,1.7-2.4
	s1-1.8,1.3-2.6s0.5-1.5,0.6-2.1c0.1-0.6,0-0.8-0.2-0.8c-0.3,0.1-0.8,0.5-1.5,1.3c-0.6,0.8-1.3,1.7-2,2.9c-0.7,1.1-1.3,2.3-2,3.6
	c-0.6,1.3-1.1,2.4-1.3,3.5c-0.3,1.1-0.3,1.9-0.2,2.6c0.2,0.6,0.7,0.9,1.6,0.7c1.7-0.3,3.2-1,4.6-2.2c1-0.9,2-1.9,3-3.1l9.6-21.2
	l5.8-1.8L202.8-94c0.2-0.3,0.4-0.5,0.6-0.8c0.6-0.7,1.2-1.3,1.9-1.8s1.4-0.8,2.3-1c1.7-0.3,2.7,0.1,3,1.3c0.3,1.2-0.2,3.2-1.7,6
	c-1.1,2.3-1.9,3.9-2.3,4.8c-0.4,0.9-0.4,1.3,0.1,1.3c0.4-0.1,0.9-0.4,1.5-1.1c0.6-0.7,1.1-1.4,1.6-2.2c0.6-0.9,1.2-2,1.9-3.1
	C211.3-89.2,210.7-87.9,209.9-86.7z"/>
<path class="st1" d="M139.4-54.7c-4.3,1.5-8.5,4-11.8,7.1c-3.4,3.2-6.6,7.4-9,12.4c-2.3,5-6.1,32.1-6.1,32.1s23.8-4.2,28.5-6.4
	c4.8-2.2,9-5.2,12.1-8.5c3.2-3.3,5.8-7.4,7.5-12.1c1.8-4.7,4.5-28.6,4.5-28.6S143.7-56.3,139.4-54.7z"/>
<polygon class="st2" points="153.2,-35.8 143.2,-35.8 143.2,-45.8 133.4,-45.8 133.4,-35.8 123.4,-35.8 123.4,-26 133.4,-26 
	133.4,-16 143.2,-16 143.2,-26 153.2,-26 "/>
</svg>
