<?xml version="1.0" encoding="utf-8"?>
<!-- Generator: Adobe Illustrator 19.0.0, SVG Export Plug-In . SVG Version: 6.00 Build 0)  -->
<!DOCTYPE svg PUBLIC "-//W3C//DTD SVG 1.1//EN" "http://www.w3.org/Graphics/SVG/1.1/DTD/svg11.dtd">
<svg version="1.1" id="Ebene_1" xmlns="http://www.w3.org/2000/svg" xmlns:xlink="http://www.w3.org/1999/xlink" x="0px" y="0px"
	 width="380px" height="160px" viewBox="0 0 380 160" style="enable-background:new 0 0 380 160;" xml:space="preserve">
<style type="text/css">
	.st0{fill:#010202;}
	.st1{fill:#E52620;}
	.st2{fill:#FFFFFF;}
</style>
<path id="XMLID_3_" class="st0" d="M257.1,109.2l17.9-40.8l9.6-3.5l-18.4,42.3L257.1,109.2z M264.3,87.5c-2,0.5-3.5,0.4-4.6-0.3
	c-1.1-0.8-1.7-1.9-1.8-3.4c-0.1-1.5,0.3-3.4,1.2-5.4c0.9-2,2.3-4.1,4.4-6.1c2-2,4.5-3.9,7.7-5.8c3.1-1.8,6.9-3.2,11.2-4.2
	c3.1-0.7,5.6-0.9,7.5-0.5c1.9,0.3,3.4,1.1,4.4,2.3c1,1.1,1.5,2.5,1.6,4.2c0.1,1.7-0.3,3.5-0.9,5.5s-1.8,3.9-3.1,6
	c-1.4,2-3.1,3.9-5,5.8c-2,1.8-4.2,3.4-6.7,4.8c-2.5,1.4-5.2,2.4-8.1,3.1c-0.9,0.2-1.4,0.3-1.6,0.2s-0.2-0.3,0-0.4
	c0.2-0.2,0.5-0.4,0.9-0.7s0.8-0.4,1.1-0.5c1.5-0.3,3.2-1.3,4.9-3.1c1.7-1.7,3.4-3.7,4.8-6c1.5-2.3,2.8-4.7,3.8-7.1
	c1-2.5,1.7-4.7,1.8-6.7c0.3-2-0.1-3.5-0.8-4.6c-0.8-1.1-2.3-1.4-4.5-0.9c-2.4,0.6-4.6,1.5-6.5,2.9c-1.9,1.3-3.5,2.8-4.9,4.4
	c-1.4,1.7-2.6,3.4-3.5,5.2c-0.9,1.8-1.7,3.5-2.2,5.1c-0.5,1.6-0.8,3-1,4.2C264,86.4,264.1,87.2,264.3,87.5z"/>
<path id="XMLID_6_" class="st0" d="M290.4,89.5c0.7-1.4,1.3-2.9,1.8-4.3c0.6-1.4,1.2-2.7,1.7-3.9c0.6-1.3,1.1-2.6,1.7-3.9l9.6-3.5
	c-0.5,1.1-1,2.4-1.7,3.9c-0.5,1.2-1.2,2.7-1.9,4.4c-0.8,1.7-1.6,3.5-2.5,5.5c-0.9,2-1.7,3.7-2.2,5c-0.6,1.3-0.9,2.3-1.2,3.1
	c-0.3,0.8-0.3,1.3-0.3,1.5s0.3,0.3,0.7,0.3c0.7-0.2,1.5-0.8,2.4-1.9c0.9-1.2,1.8-2.3,2.6-3.7c1-1.6,1.9-3.3,2.9-5.2
	c-0.9,2.4-1.9,4.6-3.2,6.5c-0.5,0.8-1.1,1.7-1.8,2.5c-0.7,0.8-1.3,1.6-2.2,2.3c-0.8,0.8-1.7,1.3-2.5,1.9c-0.9,0.5-1.8,0.9-2.9,1.2
	c-1.9,0.4-3.2,0.3-3.8-0.3s-0.8-1.5-0.7-2.8c0.2-1.2,0.5-2.6,1.2-4.2C289.1,92.4,289.8,90.9,290.4,89.5z M298.7,70.8
	c0.8-1.8,1.5-3.3,2.1-4.4c0.6-1.2,1.1-2.2,1.7-2.9s1.1-1.4,1.8-1.9s1.3-0.9,2.2-1.3s1.8-0.8,3.1-1.2c1.2-0.3,2.6-0.8,4.4-1.4
	c-0.8,1.6-1.3,2.9-1.8,4c-0.5,1.1-1,2-1.5,2.7c-0.5,0.8-1,1.3-1.6,1.8s-1.3,0.9-2.2,1.4c-0.8,0.4-1.9,0.9-3.2,1.4
	C302.1,69.4,300.5,70.1,298.7,70.8z"/>
<path id="XMLID_9_" class="st0" d="M303.8,86.3c0.3-0.7,0.7-1.6,1.2-2.7c0.5-1.1,1-2.3,1.6-3.5s1.2-2.6,1.8-3.9
	c0.6-1.3,1.2-2.8,1.8-4.1c1.3-3.2,2.9-6.5,4.4-10l11-6.7c-1.8,3.9-3.4,7.8-5.1,11.5c-0.7,1.6-1.4,3.2-2.1,4.9
	c-0.8,1.7-1.4,3.3-2.2,4.8c-0.7,1.6-1.3,3-2,4.4c-0.6,1.3-1.2,2.6-1.6,3.5c-0.9,2-1.7,3.7-2.2,5c-0.6,1.3-0.9,2.3-1.2,3.1
	c-0.3,0.8-0.3,1.3-0.3,1.5s0.3,0.3,0.7,0.3c0.7-0.2,1.5-0.8,2.4-1.9c0.9-1.2,1.8-2.3,2.6-3.7c1-1.6,1.9-3.3,2.9-5.2
	c-0.9,2.4-1.9,4.6-3.2,6.5c-0.5,0.8-1.1,1.7-1.8,2.5c-0.7,0.8-1.3,1.6-2.2,2.3c-0.8,0.8-1.7,1.3-2.5,1.9c-0.9,0.5-1.8,0.9-2.9,1.2
	c-1.9,0.4-3.2,0.3-3.8-0.3s-0.8-1.5-0.7-2.8c0.2-1.2,0.6-2.6,1.2-4.2C302.5,89.3,303.2,87.8,303.8,86.3z M306.6,73.6l1.3-2.7
	l15.6-3.6l-1.3,2.7L306.6,73.6z"/>
<path id="XMLID_12_" class="st0" d="M236.8,157.4l17.9-40.8l9.6-3.5l-18.4,42.2L236.8,157.4z M244,135.6c-2,0.5-3.5,0.4-4.6-0.3
	c-1.1-0.8-1.7-1.9-1.8-3.4s0.3-3.4,1.2-5.4c0.9-2,2.3-4.1,4.4-6.1c2-2,4.5-3.9,7.7-5.8c3.1-1.8,6.9-3.2,11.2-4.2
	c3.1-0.7,5.6-0.9,7.5-0.5c1.9,0.3,3.4,1.1,4.4,2.3c1,1.1,1.5,2.5,1.6,4.2c0.1,1.7-0.3,3.5-0.9,5.5c-0.7,1.9-1.8,3.9-3.1,6
	c-1.4,2-3.1,3.9-5,5.8c-2,1.8-4.2,3.4-6.7,4.8c-2.5,1.4-5.2,2.4-8.1,3.1c-0.9,0.2-1.4,0.3-1.6,0.2s-0.2-0.3,0-0.4s0.5-0.4,0.9-0.7
	s0.8-0.4,1.1-0.5c1.5-0.3,3.2-1.3,4.9-3.1c1.7-1.7,3.4-3.7,4.8-6c1.5-2.3,2.8-4.7,3.8-7.1c1-2.5,1.7-4.7,1.8-6.7
	c0.3-2-0.1-3.5-0.8-4.6c-0.8-1.1-2.3-1.4-4.5-0.9c-2.4,0.6-4.6,1.5-6.5,2.9c-1.9,1.3-3.5,2.8-4.9,4.4c-1.4,1.7-2.6,3.4-3.5,5.2
	c-0.9,1.8-1.7,3.5-2.2,5.1s-0.8,3-1,4.2C243.7,134.5,243.8,135.2,244,135.6z"/>
<path id="XMLID_15_" class="st0" d="M264.3,151l11.3-25.6l9.6-3.5l-11.9,27L264.3,151z M290,120.8c2.1-0.5,3.4-0.4,4.2,0.1
	s1.1,1.3,1.1,2.4c0,1.1-0.3,2.3-0.9,3.6c-0.6,1.3-1.2,2.7-1.8,3.9s-1.1,2.2-1.4,2.9c-0.3,0.8-0.3,1.1,0.2,1c0.7-0.2,1.4-0.6,2.2-1.4
	c0.8-0.8,1.5-1.6,2.2-2.5c0.8-1,1.5-2.2,2.3-3.4c-0.8,1.8-1.8,3.4-2.9,4.9c-1,1.3-2.2,2.5-3.5,3.7c-1.4,1.2-3,2-4.9,2.4
	c-1.7,0.4-2.8,0.3-3.3-0.2c-0.6-0.5-0.8-1.3-0.6-2.3c0.2-1,0.5-2.2,1-3.4c0.6-1.3,1.1-2.5,1.6-3.6c0.5-1.1,0.9-2,1.1-2.7
	c0.3-0.7,0.1-1-0.4-0.8c-0.8,0.2-1.4,0.7-2.2,1.5c-0.8,0.8-1.3,1.8-1.9,2.7c-0.7,1.1-1.3,2.3-1.8,3.7c-0.3,0.5-0.7,1-1,1.5
	s-0.7,0.8-0.9,1.3c-0.3,0.3-0.5,0.6-0.7,0.8s-0.2,0.1-0.1-0.1c0.8-1.8,1.6-3.6,2.5-5.4c1-1.8,2-3.4,3.1-4.8c1.1-1.4,2.3-2.7,3.4-3.6
	C287.6,121.7,288.8,121.1,290,120.8z"/>
<path id="XMLID_18_" class="st0" d="M313.2,115.4c2.4-0.6,4.2-0.3,5.4,0.6c1.2,0.9,1.8,2.3,1.8,4.1c0,1.8-0.4,3.9-1.3,6.1
	c-0.9,2.3-2.2,4.5-3.9,6.7c-1.7,2.2-3.6,4.1-6,5.9c-2.3,1.8-4.8,2.9-7.5,3.5c-2.4,0.6-4.3,0.4-5.5-0.5s-2-2.3-2.2-4
	c-0.2-1.8,0.1-3.8,0.9-6c0.8-2.3,2-4.5,3.7-6.7c1.7-2.2,3.7-4.2,6.1-5.9C307.3,117.4,310.1,116.1,313.2,115.4z M302.2,141.2
	c0.7-0.2,1.5-0.9,2.5-2.2c1-1.3,1.9-2.9,2.9-4.8c1-1.8,1.9-3.9,2.9-6c0.9-2.1,1.7-4,2.2-5.8c0.6-1.8,0.8-3.2,0.9-4.3
	s-0.2-1.6-0.8-1.4c-1,0.3-2,1-3,2.3c-1.1,1.3-2.1,2.9-3.1,4.8c-1,1.8-1.9,3.9-2.8,6c-0.8,2.1-1.5,4-1.9,5.8
	c-0.5,1.8-0.7,3.2-0.8,4.3C301.3,140.9,301.6,141.3,302.2,141.2z"/>
<path id="XMLID_21_" class="st0" d="M316.4,139l11.2-25.5l9.6-3.5l-11.9,27L316.4,139z M342.8,108.6c2.9-0.7,4.5,0,5,1.8
	c0.5,1.8-0.4,5.2-2.8,10c-1.8,3.9-3.1,6.5-3.8,8.1c-0.6,1.5-0.6,2.3,0.2,2.1c0.7-0.2,1.5-0.8,2.4-1.9c0.9-1.2,1.8-2.3,2.7-3.7
	c1-1.6,2-3.3,3-5.2c-0.9,2.3-1.9,4.6-3.2,6.5c-0.5,0.8-1.1,1.7-1.8,2.5c-0.7,0.8-1.3,1.6-2.2,2.3c-0.8,0.8-1.7,1.3-2.5,1.9
	c-0.9,0.5-1.8,0.9-2.9,1.2c-1.3,0.3-2.2,0.3-2.9,0.1c-0.7-0.3-1.1-0.6-1.3-1.2s-0.3-1.3-0.1-2.1s0.4-1.8,0.8-2.7c0.3-1,0.8-2,1.3-3
	s0.9-2,1.3-3c0.7-1.4,1.3-2.7,1.8-3.9c0.5-1.3,0.9-2.3,1.3-3.1c0.3-0.8,0.4-1.5,0.4-1.9s-0.3-0.6-0.8-0.5c-0.4,0.1-0.9,0.4-1.5,1.1
	c-0.6,0.6-1.2,1.3-1.8,2.3c-0.6,0.9-1.3,1.9-1.9,3c-0.7,1.1-1.3,2.3-1.8,3.4c-1.4,2.7-2.9,5.7-4.4,9.1c0.1-0.4,0.3-1.1,0.6-1.9
	c0.3-0.8,0.7-1.8,1.3-3.1c0.6-1.3,1.3-3,2.2-5.1c0.7-1.4,1.3-2.8,2.1-4.2c0.8-1.4,1.5-2.7,2.4-3.9c0.9-1.2,1.9-2.2,3-3
	C340.2,109.5,341.4,108.9,342.8,108.6z"/>
<path id="XMLID_24_" class="st0" d="M357,128.5c2.8-0.7,5.3-2,7.5-4c2.3-2.1,4.5-4.6,6.7-7.7c-0.8,1.4-1.8,2.9-2.9,4.3
	c-1.2,1.4-2.4,2.8-3.9,3.9s-2.9,2.3-4.4,3.2c-1.6,0.9-3.2,1.5-4.9,1.9c-2.6,0.6-4.6,0.5-6-0.4c-1.3-0.9-2.1-2.2-2.3-4
	c-0.2-1.8,0.2-3.8,1-6.1c0.8-2.3,2.1-4.5,3.9-6.7c1.7-2.2,3.8-4.2,6.2-6c2.4-1.8,5.1-2.9,8.1-3.7c2-0.5,3.5-0.4,4.6,0.1
	c1.1,0.5,1.7,1.3,1.8,2.5c0.2,1.2-0.1,2.5-0.8,4.1c-0.8,1.6-1.8,3.2-3.4,4.9c-1.6,1.7-3.5,3.3-5.9,4.9c-2.3,1.6-5.1,2.9-8.2,4
	c-0.5-0.1-0.7-0.3-0.4-0.5c0.3-0.3,0.5-0.4,0.8-0.5c1.1-0.3,2.2-1.1,3.3-2.2c1.1-1.1,2.2-2.3,3.1-3.7c1-1.4,1.8-2.9,2.7-4.4
	c0.8-1.5,1.4-2.9,1.9-4.1c0.5-1.3,0.8-2.2,0.8-3c0.1-0.8-0.1-1.1-0.5-1c-0.6,0.2-1.3,0.8-2.4,2.2c-1.1,1.3-2.2,2.9-3.3,4.9
	c-1.2,1.9-2.2,3.9-3.2,6c-1,2.1-1.8,4.1-2.2,5.9c-0.5,1.8-0.6,3.2-0.3,4.2C354.8,128.4,355.6,128.9,357,128.5z"/>
<path id="XMLID_2_" class="st1" d="M357,49.7c-3.6,1.3-7.1,3.4-9.9,6c-2.9,2.7-5.5,6.2-7.5,10.4c-1.9,4.2-5.1,26.9-5.1,26.9
	s20-3.5,23.9-5.4c4-1.8,7.5-4.4,10.1-7.1c2.7-2.8,4.9-6.2,6.3-10.1c1.5-3.9,3.8-24,3.8-24S360.6,48.4,357,49.7z"/>
<polygon id="XMLID_1_" class="st2" points="368.6,65.5 360.2,65.5 360.2,57.2 352,57.2 352,65.5 343.6,65.5 343.6,73.8 352,73.8 
	352,82.2 360.2,82.2 360.2,73.8 368.6,73.8 "/>
</svg>
